<svg width="28" height="31" viewBox="0 0 28 31" fill="none" xmlns="http://www.w3.org/2000/svg">
<path d="M26.9357 15.0608C24.2585 10.5282 19.2735 7.71256 13.947 7.71256C8.61117 7.71256 3.63541 10.5282 0.958277 15.0608C0.894833 15.1668 0.861328 15.2881 0.861328 15.4116C0.861328 15.5352 0.894833 15.6564 0.958277 15.7624C3.63541 20.2951 8.61117 23.1107 13.947 23.1107C19.2828 23.1107 24.2585 20.2951 26.9357 15.7624C26.9991 15.6564 27.0326 15.5352 27.0326 15.4116C27.0326 15.2881 26.9991 15.1668 26.9357 15.0608ZM2.36146 15.4208C3.76465 13.2053 5.78634 11.479 8.13114 10.3897C6.95874 11.7375 6.24791 13.5007 6.24791 15.4208C6.24791 17.341 6.95874 19.1042 8.13114 20.452C5.7673 19.3598 3.7653 17.614 2.36146 15.4208ZM13.947 21.7352C10.4667 21.7352 7.63264 18.9011 7.63264 15.4208C7.63264 11.9406 10.4667 9.10651 13.947 9.10651C17.4272 9.10651 20.2613 11.9406 20.2613 15.4208C20.2613 18.9011 17.4272 21.7352 13.947 21.7352ZM19.7628 20.4428C20.9352 19.095 21.646 17.3318 21.646 15.4116C21.646 13.4915 20.9352 11.7283 19.7628 10.3805C22.1076 11.4698 24.1293 13.1961 25.5325 15.4116C24.1293 17.6272 22.1076 19.3627 19.7628 20.4428ZM13.947 10.9067C13.0541 10.9067 12.1814 11.1714 11.439 11.6674C10.6967 12.1635 10.1181 12.8685 9.7764 13.6933C9.43473 14.5182 9.34533 15.4258 9.51951 16.3015C9.6937 17.1772 10.1236 17.9815 10.755 18.6129C11.3863 19.2442 12.1906 19.6741 13.0663 19.8483C13.942 20.0225 14.8496 19.9331 15.6745 19.5914C16.4993 19.2497 17.2044 18.6712 17.7004 17.9288C18.1964 17.1864 18.4612 16.3137 18.4612 15.4208C18.4612 12.9283 16.4302 10.9067 13.947 10.9067ZM13.947 18.5503C12.2207 18.5503 10.8175 17.1471 10.8175 15.4208C10.8175 13.6946 12.2207 12.2914 13.947 12.2914C15.6733 12.2914 17.0764 13.6946 17.0764 15.4208C17.0764 17.1471 15.6733 18.5503 13.947 18.5503ZM13.947 12.5683C12.3776 12.5683 11.0944 13.8423 11.0944 15.4208C11.0944 15.7993 11.4083 16.1132 11.7868 16.1132C12.1653 16.1132 12.4792 15.7993 12.4792 15.4208C12.4792 14.6177 13.1346 13.953 13.947 13.953C14.3255 13.953 14.6393 13.6392 14.6393 13.2607C14.6393 12.8822 14.3255 12.5683 13.947 12.5683ZM24.1385 20.5628C23.76 20.5628 23.4462 20.8766 23.4462 21.2551V24.2831H21.009V23.5261C21.009 23.1476 20.6952 22.8337 20.3167 22.8337C19.9382 22.8337 19.6243 23.1476 19.6243 23.5261V29.3788H8.26961V23.5261C8.26961 23.1476 7.95574 22.8337 7.57725 22.8337C7.19876 22.8337 6.88489 23.1476 6.88489 23.5261V24.2831H4.44778V21.2551C4.44778 20.8766 4.13391 20.5628 3.75541 20.5628C3.37692 20.5628 3.06305 20.8766 3.06305 21.2551V30.0712C3.06305 30.4497 3.37692 30.7636 3.75541 30.7636H24.1385C24.517 30.7636 24.8309 30.4497 24.8309 30.0712V21.2551C24.8309 20.8766 24.517 20.5628 24.1385 20.5628ZM6.88489 29.3788H4.44778V28.2157H6.88489V29.3788ZM6.88489 26.831H4.44778V25.6678H6.88489V26.831ZM23.4462 29.3788H21.009V28.2157H23.4462V29.3788ZM23.4462 26.831H21.009V25.6678H23.4462V26.831ZM3.75541 10.2697C4.13391 10.2697 4.44778 9.95581 4.44778 9.57732V6.54939H6.88489V7.30637C6.88489 7.68486 7.19876 7.99873 7.57725 7.99873C7.95574 7.99873 8.26961 7.68486 8.26961 7.30637V1.46285H19.6243V7.3156C19.6243 7.6941 19.9382 8.00797 20.3167 8.00797C20.6952 8.00797 21.009 7.6941 21.009 7.3156V6.55862H23.4462V9.58655C23.4462 9.96504 23.76 10.2789 24.1385 10.2789C24.517 10.2789 24.8309 9.96504 24.8309 9.58655V0.770486C24.8309 0.391995 24.517 0.078125 24.1385 0.078125H3.75541C3.37692 0.078125 3.06305 0.391995 3.06305 0.770486V9.58655C3.06305 9.96504 3.36769 10.2697 3.75541 10.2697ZM21.009 1.46285H23.4462V2.62601H21.009V1.46285ZM21.009 4.01074H23.4462V5.1739H21.009V4.01074ZM4.44778 1.46285H6.88489V2.62601H4.44778V1.46285ZM4.44778 4.01074H6.88489V5.1739H4.44778V4.01074Z" fill="#F4D059"/>
</svg>
