<svg width="16" height="16" viewBox="0 0 16 16" fill="none" xmlns="http://www.w3.org/2000/svg">
<path d="M15.1992 8.39453C15.1992 4.66661 12.1771 1.64453 8.44922 1.64453V2.76953C11.5558 2.76953 14.0742 5.28793 14.0742 8.39453H15.1992Z" fill="white"/>
<path fill-rule="evenodd" clip-rule="evenodd" d="M1.70897 4.92094C1.65447 5.65214 1.83517 6.34033 2.08472 7.01418C2.60103 8.40776 3.38697 9.64077 4.33927 10.7763C5.62717 12.3075 7.16461 13.5204 8.96595 14.395C9.7777 14.7878 10.6181 15.0918 11.5303 15.1405C12.1556 15.175 12.6672 14.9764 13.1423 14.5269C13.3493 14.331 13.5618 14.1124 13.7748 13.8933C13.8815 13.7835 13.9883 13.6735 14.0946 13.5663C14.565 13.0932 14.5679 12.5168 14.1003 12.0466C13.5439 11.4845 12.9845 10.9254 12.4223 10.3691C11.9634 9.91317 11.3897 9.91604 10.9308 10.3691C10.7915 10.5072 10.6809 10.6134 10.5766 10.7136C10.4189 10.865 10.2758 11.0025 10.0704 11.2148C9.9757 11.3123 9.92761 11.3237 9.78065 11.2693C9.63368 11.2148 9.31597 11.0456 9.09797 10.9108C8.08544 10.2771 7.2364 9.45704 6.48489 8.53371C6.112 8.07492 5.77927 7.58459 5.5498 7.03404C5.50103 6.9222 5.50964 6.84765 5.60143 6.75876C5.71815 6.6459 5.81381 6.55443 5.90223 6.46988C6.0789 6.30096 6.22675 6.15959 6.45613 5.93028C6.93514 5.44855 6.93228 4.88366 6.45326 4.39906C6.27154 4.21548 6.08854 4.03318 5.90597 3.85131L5.90452 3.84986C5.8138 3.75949 5.7232 3.66923 5.6329 3.57897C5.35182 3.29511 5.07068 3.01119 4.78673 2.73307C4.32779 2.28288 3.75125 2.28001 3.29231 2.73307C3.29231 2.73307 2.59365 3.39865 2.24248 3.77109C1.89131 4.14352 1.74339 4.47074 1.70897 4.92094ZM4.21759 3.75362C4.11955 3.6575 4.10886 3.64701 4.04062 3.64701C3.97093 3.64701 3.93555 3.67993 3.87116 3.73985C3.86078 3.74951 3.84965 3.75987 3.8375 3.7709C3.74996 3.8504 3.07043 4.53144 3.07043 4.53144C3.07043 4.53144 2.8976 4.70692 2.84384 4.87677C2.79009 5.04662 2.82358 5.45509 2.87006 5.68792C3.24918 7.58695 4.59905 9.45806 5.79647 10.7224C7.01299 12.007 8.74607 13.2719 10.8082 13.9085C11.0699 13.9893 11.7547 14.0563 11.9651 13.9764C12.1756 13.8965 12.3791 13.7051 12.3791 13.7051L12.9722 13.1004C12.9722 13.1004 13.1596 12.9314 13.1596 12.8278C13.1596 12.7241 13.1075 12.6571 13.0371 12.5863C12.3666 11.9127 11.9972 11.54 11.9287 11.4684L11.9165 11.4556C11.8115 11.3455 11.7616 11.2932 11.672 11.2932C11.5857 11.2932 11.5002 11.3833 11.4455 11.4409L11.4333 11.4537C10.7224 12.1949 10.4788 12.3887 10.0437 12.4232C9.33217 12.4796 7.95045 11.7097 6.48764 10.2261C5.02484 8.74259 4.3198 7.31849 4.3956 6.79202C4.46705 6.29571 4.73916 6.03109 4.81474 5.95759L4.82626 5.9463C4.87953 5.89282 5.45099 5.34597 5.45099 5.34597C5.45099 5.34597 5.57515 5.23448 5.57515 5.17001C5.57515 5.11003 5.54843 5.08339 5.51127 5.04633L5.50275 5.03781C4.79034 4.32121 4.38351 3.91414 4.28226 3.8166C4.25712 3.79237 4.2358 3.77147 4.21759 3.75362Z" fill="white"/>
<path d="M8.44922 3.89453C10.9345 3.89453 12.9492 5.90925 12.9492 8.39453H11.8242C11.8242 6.53057 10.3132 5.01953 8.44922 5.01953V3.89453Z" fill="white"/>
</svg>
