<svg width="16" height="16" viewBox="0 0 16 16" fill="none" xmlns="http://www.w3.org/2000/svg">
<path fill-rule="evenodd" clip-rule="evenodd" d="M8.44922 15.1445C4.94922 11.5775 3.19922 8.82753 3.19922 6.89453C3.19922 3.99504 5.54972 1.64453 8.44922 1.64453C11.3487 1.64453 13.6992 3.99504 13.6992 6.89453C13.6992 8.82753 11.9492 11.5775 8.44922 15.1445ZM8.44922 13.5695C11.1992 10.6383 12.5742 8.41331 12.5742 6.89453C12.5742 4.61636 10.7274 2.76953 8.44922 2.76953C6.17104 2.76953 4.32422 4.61636 4.32422 6.89453C4.32422 8.41331 5.69922 10.6383 8.44922 13.5695ZM8.44922 9.14453C7.20658 9.14453 6.19922 8.13717 6.19922 6.89453C6.19922 5.65189 7.20658 4.64453 8.44922 4.64453C9.69186 4.64453 10.6992 5.65189 10.6992 6.89453C10.6992 8.13717 9.69186 9.14453 8.44922 9.14453ZM8.44922 8.01953C9.07054 8.01953 9.57422 7.51585 9.57422 6.89453C9.57422 6.27321 9.07054 5.76953 8.44922 5.76953C7.8279 5.76953 7.32422 6.27321 7.32422 6.89453C7.32422 7.51585 7.8279 8.01953 8.44922 8.01953Z" fill="white"/>
</svg>
